<svg xmlns="http://www.w3.org/2000/svg" xmlns:xlink="http://www.w3.org/1999/xlink" width="1080" zoomAndPan="magnify" viewBox="0 0 810 809.999993" height="1080" preserveAspectRatio="xMidYMid meet" version="1.0"><defs><clipPath id="881444954e"><path d="M 26.296875 506 L 783.796875 506 L 783.796875 810 L 26.296875 810 Z M 26.296875 506 " clip-rule="nonzero"/></clipPath><clipPath id="9abc8510d8"><path d="M 26.296875 8.511719 L 783.796875 8.511719 L 783.796875 313 L 26.296875 313 Z M 26.296875 8.511719 " clip-rule="nonzero"/></clipPath></defs><g clip-path="url(#881444954e)"><path fill="#020202" d="M 26.292969 733.929688 L 102.679688 810.332031 L 234.347656 810.332031 L 234.347656 800.867188 L 575.644531 800.867188 L 575.644531 810.332031 L 700.792969 810.332031 L 783.699219 727.40625 L 783.699219 524.675781 L 759.628906 506.816406 L 759.628906 717.429688 L 690.816406 786.257812 L 575.644531 786.257812 L 575.644531 795.722656 L 234.347656 795.722656 L 234.347656 786.257812 L 112.652344 786.257812 L 50.359375 723.953125 L 50.359375 530.074219 L 26.292969 506.816406 Z M 26.292969 733.929688 " fill-opacity="1" fill-rule="nonzero"/></g><g clip-path="url(#9abc8510d8)"><path fill="#020202" d="M 26.292969 84.945312 L 102.679688 8.542969 L 234.347656 8.542969 L 234.347656 18.007812 L 575.644531 18.007812 L 575.644531 8.542969 L 700.792969 8.542969 L 783.699219 91.464844 L 783.699219 292.234375 L 759.628906 312.058594 L 759.628906 101.441406 L 690.816406 32.617188 L 575.644531 32.617188 L 575.644531 23.148438 L 234.347656 23.148438 L 234.347656 32.617188 L 112.652344 32.617188 L 50.359375 94.921875 L 50.359375 282.921875 L 26.292969 312.058594 Z M 26.292969 84.945312 " fill-opacity="1" fill-rule="nonzero"/></g><path fill="#020202" d="M 660.246094 746.074219 L 186.300781 746.074219 L 100.417969 660.175781 L 100.417969 552.867188 L 108.136719 552.867188 L 108.136719 656.972656 L 189.5 738.355469 L 660.246094 738.355469 Z M 660.246094 746.074219 " fill-opacity="1" fill-rule="nonzero"/><path fill="#020202" d="M 686.839844 273.203125 L 679.125 273.203125 L 679.125 169.097656 L 597.761719 87.714844 L 127.011719 87.714844 L 127.011719 79.996094 L 600.960938 79.996094 L 686.839844 165.894531 Z M 686.839844 273.203125 " fill-opacity="1" fill-rule="nonzero"/></svg>